<?xml version="1.0" encoding="utf-8"?>
<!-- Generator: Adobe Illustrator 27.8.1, SVG Export Plug-In . SVG Version: 6.00 Build 0)  -->
<svg version="1.1" id="圖層_1" xmlns="http://www.w3.org/2000/svg" xmlns:xlink="http://www.w3.org/1999/xlink" x="0px" y="0px"
	 viewBox="0 0 525 104.7" style="enable-background:new 0 0 525 104.7;" xml:space="preserve">
<style type="text/css">
	.st0{fill:url(#路径_5067_00000142872426814914671880000000199738002114108072_);}
	.st1{fill:url(#路径_5068_00000082337342311427572910000007762537471363616924_);}
	.st2{fill:url(#路径_5069_00000017499816021373152900000012416268280582418055_);}
	.st3{fill:url(#路径_5070_00000111150756934090109330000004687246338568155034_);}
	.st4{fill:#231815;}
</style>
<g id="组_4932" transform="translate(-30.236 -19)">
	<g id="组_1" transform="translate(30.236 19)">
		<g id="组_1-2" transform="translate(0 0)">
			
				<linearGradient id="路径_5067_00000004515287909822122620000012555758025893461432_" gradientUnits="userSpaceOnUse" x1="-1440.4745" y1="193.9444" x2="-1439.0515" y2="193.9444" gradientTransform="matrix(30.9388 0 0 60.8418 44572.8047 -11755.3477)">
				<stop  offset="0" style="stop-color:#DF1F1C"/>
				<stop  offset="1" style="stop-color:#F89A27"/>
			</linearGradient>
			<path id="路径_5067" style="fill:url(#路径_5067_00000004515287909822122620000012555758025893461432_);" d="M24,87.7
				c0.2-0.9,0.2-1.9,0.2-2.8c-0.1-1.8-0.3-3.6-0.7-5.4C23,77,22,74.7,20.7,72.6c-1.1-1.4-2.3-2.8-3.7-3.9c-1.6-1.3-2.9-2.8-4-4.5
				c-1.7-3.1-2.5-6.5-2.5-10c-0.3-3.6,0.5-7.2,2.2-10.3c1.7-2.9,5.3-6.3,6.7-9c0.9-1.9,1.7-3.9,2.2-6c1.7-5.6,3.4-9.5,6.6-11.8
				c2-1.4,6.3-2.7,8-3.6c1.4-0.9,2.7-2.2,3.6-3.6c0.6-0.9,1.3-1.7,2.1-2.5c1.5-1.2,3.2-2,5.1-2.5c1.2-0.3,3-0.8,3.3-1.8
				c0.1-0.4-0.1-0.9-0.6-1.3s-1.2-0.6-1.8-0.5c-2,0-3.9,0.6-5.7,1.6c-1.4,1-2.6,2.2-3.5,3.6c-0.8,1.3-1.8,2.4-3,3.2
				c-1.5,0.9-3,1.6-4.5,2.3c-1.7,0.7-3.4,1.6-5,2.6c-2.5,1.7-4.5,4.1-5.9,6.8c-0.8,1.5-1.5,3.2-2.1,4.8c-0.8,2.7-1.9,5.2-3.2,7.7
				c-1.6,2.5-3.4,4.1-5.4,7.1c-3.4,5.1-3.4,11.2-3.1,15c0.3,3.3,1.3,6.5,3.1,9.3c1.9,2.5,4,4.7,6.3,6.8c2.2,2.2,3.9,4.9,4.9,7.9
				c0.3,0.9,1.4,3.3,2.1,5.2c0.3,0.8,0.4,1.6,0.7,2.4C23.5,87.9,23.9,88,24,87.7z"/>
			
				<linearGradient id="路径_5068_00000155147710261922587340000007278267890395190660_" gradientUnits="userSpaceOnUse" x1="-1416.3582" y1="194.2656" x2="-1415.5583" y2="192.8625" gradientTransform="matrix(20.8789 0 0 61.8333 29610.998 -11929.1221)">
				<stop  offset="0" style="stop-color:#00267F"/>
				<stop  offset="1" style="stop-color:#41AAE4"/>
			</linearGradient>
			<path id="路径_5068" style="fill:url(#路径_5068_00000155147710261922587340000007278267890395190660_);" d="M53.2,7.7
				c-1.1,0.8,0.1,2.2,0.6,2.7l0,0c0.8,0.8,1.3,1.8,1.4,2.9c-0.1,2.1-0.6,4.1-1.3,6c-0.4,1.8-0.4,3.7,0,5.5c0.7,2.8,0.5,5.8-0.7,8.4
				c-1.4,3.4-2.9,6.7-4.7,10c-1.5,2.6-2.7,5.3-3.7,8.1C44.3,53,43.3,59,43,60.2c-1,4.1-3.4,7.5-5.9,11.1c-3,4.3-5,7.5-6.2,13.7
				c-0.4,1.8-0.9,3.7-1.5,5.4c-0.4,1.2-1.6,3.2-1.3,4.2c0.2,0.8,1.1,1,1.9,0.5c1.6-1,2-3.6,2.4-5.2c0.6-2.4,1.1-4.7,1.8-7.1
				c1.1-4.4,3.3-6.7,5.7-9.4c2.2-2.4,4.1-5.1,5.6-8c1.8-3.8,3.2-12.4,4.2-14.8c1.4-3.4,3.2-6.6,3.2-6.6c2.2-3.6,3.8-7.5,4.7-11.6
				c0.3-2.1,0.2-4.2-0.3-6.2c-0.7-2.1-0.9-4.2-0.7-6.4c0.4-1.6,1.6-5.5,0.6-8.4C56.8,10.1,56.1,8.9,55,8C54.6,7.7,53.7,7.3,53.2,7.7
				z"/>
			
				<linearGradient id="路径_5069_00000039117850378424807860000003088032282575053728_" gradientUnits="userSpaceOnUse" x1="-1427.213" y1="193.0103" x2="-1426.4418" y2="191.8093" gradientTransform="matrix(24.6211 0 0 67.2709 35184.9766 -12905.4424)">
				<stop  offset="0" style="stop-color:#431274"/>
				<stop  offset="0.167" style="stop-color:#61136C"/>
				<stop  offset="0.564" style="stop-color:#A3185D"/>
				<stop  offset="0.852" style="stop-color:#CD1A53"/>
				<stop  offset="1" style="stop-color:#DD1C50"/>
			</linearGradient>
			<path id="路径_5069" style="fill:url(#路径_5069_00000039117850378424807860000003088032282575053728_);" d="M65.2,11.5
				c-0.8-0.7-1.7-1.3-2.6-1.8c-1-0.7-2.2-1.1-3.5-1.2c-0.6,0-1.1,0.4-1.2,1c0,0.2,0,0.5,0.2,0.7c0.5,1,2.6,1.1,3.6,1.5
				c1.5,0.6,2.8,1.8,2.8,3.2c0,2.9-2.6,5.7-3.3,8c-0.9,3,0,7.8-1,10.6c-0.8,2.1-1.8,4-3,5.9c-1.7,2.6-3,5.5-3.8,8.6
				c-0.4,2-0.5,10.4-0.9,12.4c-0.9,4.2-3.7,8.1-6.6,11.6c-2.6,2.9-5,5.9-7.2,9c-2.2,3.6-3.2,7.8-2.7,12c0.3,2.2,0.5,4.4,0.5,6.6
				c-0.1,2.2-2,3.9-4.2,3.8h-0.1l0,0c0,0-0.4,0-0.4,0.3c0,0.2,0.1,0.3,0.3,0.3c1,0.1,2-0.1,2.9-0.4c3.6-1.4,3.5-5.8,3.4-9
				c0-0.4-0.7-7,3.1-11.9c2-2.6,6-6.8,6-6.8c2.4-2.5,4.5-5.3,6.2-8.4c2.7-4.4,3.2-9.4,3.5-14.6c0.2-4.4,1.4-8.6,3.4-12.5
				c0.3-0.5,3.2-5.5,3.4-8.1c0.2-2.1-0.5-6.6-0.3-8c0.7-2.2,1.5-4.4,2.5-6.5C67.3,15.9,66.8,13.3,65.2,11.5z"/>
			
				<linearGradient id="路径_5070_00000129914255676638082030000013881521671466392758_" gradientUnits="userSpaceOnUse" x1="-1433.245" y1="194.1488" x2="-1431.822" y2="194.1488" gradientTransform="matrix(26.9428 0 0 60.1286 38627.5234 -11621.415)">
				<stop  offset="0" style="stop-color:#008129"/>
				<stop  offset="1" style="stop-color:#C3D037"/>
			</linearGradient>
			<path id="路径_5070" style="fill:url(#路径_5070_00000129914255676638082030000013881521671466392758_);" d="M22.8,52.8
				c1.6-3.1,2.6-6.4,2.8-9.9c0.3-3.8,1.3-7.4,3-10.8c1.9-3,4.4-5.5,7.4-7.5c2.7-1.8,4.9-4.1,6.6-6.8c1-1.6,2.5-3,4.2-3.9
				c1.1-0.6,2.1-1.2,3-2c0.5-0.5,0.6-1.2,0.4-1.8c-0.5-0.8-1.6-0.5-3.8,0.6c-2,1-3.7,2.3-5.1,4c-0.6,0.7-2.7,3.3-3.2,3.9
				c-1.4,1.4-3,2.6-4.6,3.7c-1.9,1.2-3.6,2.7-5.2,4.3c-4.2,4.6-6.4,10.3-6.9,18c-0.1,2.3-0.8,4.6-2.1,6.6c-0.6,0.9-3.3,5-4,6.2
				c-4.1,7.4-5.3,18.2,1.8,24.5l0,0c4.4,3.9,8.2,7.2,9.3,13.1c0,0,0,0.4,0.4,0.3c0.3-0.1,0.2-0.4,0.2-0.4c-0.6-5.1-1.9-9.4-6.4-13.5
				c-4.9-4.8-6.3-12.2-3.5-18.5C18.2,60.2,22.1,54,22.8,52.8z"/>
		</g>
	</g>
	<g id="组_4931" transform="translate(225.005 45.956)">
		<path id="路径_12667" class="st4" d="M119.2,30.3v21.8h-4.4V34.6c-2,1.6-4.2,3-6.6,4v-2.8c4.5-3.7,8.4-8.2,11.5-13.2l4.1,2.1
			C122.4,26.7,120.9,28.5,119.2,30.3z M108.7,23.2c3.8-2.9,7.2-6.4,9.9-10.4l3.9,2.4c-3.5,4.3-8.9,7.9-13.9,10.8L108.7,23.2z
			 M140.6,30.6V48c0.1,1.2-0.4,2.4-1.4,3.2c-1.5,0.8-3.2,1.2-4.9,1c-1.7,0-3.5-0.1-5.2-0.4l-0.1-3.4c1.3,0.1,2.6,0.1,3.9,0
			c0.8,0,1.7-0.1,2.4-0.4c0.4-0.4,0.7-1,0.6-1.6V30.6h-13.1v-3.2h25.3v3.2H140.6z M125.5,16.2h21.1v3.2h-21.1V16.2z"/>
		<path id="路径_12668" class="st4" d="M163.8,44.9v-25h-9.6v-3.2h19.4v3.2h-5.5v10.7h3.8l-1.1-1.4c3-5,4.9-10.5,5.8-16.2l4.5,0.8
			c-0.4,1.7-0.8,3.5-1.4,5.1h13v3.2h-2.9c-0.2,6.2-1.8,12.2-4.8,17.6c-0.1,0.2-0.3,0.4-0.4,0.6c2.4,3.7,5.5,7.1,9,9.8l0.1,2.4
			c-3.5-1.8-9-5.7-11.4-8.9c-3.6,3.8-7.8,6.8-12.5,8.9l0.1-2.4c4-2.7,7.5-6.1,10.3-10c-2.1-3.9-3.6-8.1-4.5-12.5
			c-0.8,1.4-1.8,2.8-2.8,4.2l-0.5-0.6v2.6h-4.3V44c1.9-0.4,3.9-0.8,5.7-1.2l0.3,3c-6.6,2.1-13.3,3.9-20,5.3l-0.9-4.6
			c1.1-0.1,2.1-0.3,3.2-0.5V25.4h4.2v20C161.6,45.2,162.7,45,163.8,44.9z M178.9,21.9c0.5,4.8,1.7,9.6,3.5,14.1
			c1.9-4.5,2.9-9.2,3.1-14.1H178.9z"/>
		<path id="路径_12669" class="st4" d="M219,16.1h16.4V19c-1.2,1.4-2.5,2.7-3.8,3.9l-3-0.9c0.7-1,1.4-2,2-3h-4.8
			c-0.2,0.5-0.4,0.9-0.5,1.4c2.4,3.1,6.3,5.3,11.7,6.7l-1.5,2.7c-0.9-0.2-1.8-0.4-2.6-0.6v17.1h-9.4c4.2,0.9,8.4,2.5,13.4,4l0.1,2
			c-4.6-0.9-11.2-2-16-2.7l2.1-3.4h-9.8l2.1,3.4c-5,1.2-10.1,2-15.2,2.7l-0.1-1.8c5.3-1.5,8.7-2.8,12.9-4.3h-9.6V28.8h7.6l-1.3-2.2
			c2.8-0.5,5.5-1.6,7.9-3.1c1.7-1.1,2.9-2.7,3.6-4.6H217c-1.3,1.6-2.9,2.9-4.7,4l-1.9-2c2.5-2.1,4.4-4.8,5.7-7.8l4.3,0.6
			C219.9,14.5,219.5,15.3,219,16.1z M199.2,25.9c3.4-1.5,6.7-3.4,9.7-5.6l2.1,3.5c-3.4,2.1-7.1,3.7-11,4.8L199.2,25.9z M200.1,15.9
			h10V19h-10V15.9z M207.9,33.7h20.5v-2.2h-20.5V33.7z M207.9,38.5h20.5v-2.2h-20.5V38.5z M228.4,41.1h-20.5v2.3h20.5V41.1z
			 M212.6,28.8h19.5c-3.4-1-6.4-2.7-9-5.1c-0.7,0.9-1.6,1.6-2.6,2.2C218,27.3,215.3,28.3,212.6,28.8z"/>
		<path id="路径_12670" class="st4" d="M274.4,47.1c-0.9-3.1-1.4-9.3-1.4-18.8v-9h-5.7v12.1h4.7v3h-4.7v17.5H263V34.4h-4.8v-3h4.8
			V19.3h-4.6V21h-15v-3h6c-0.6-1.3-1.4-2.6-2.2-3.8l4.2-1.2c0.6,1.6,1,3.3,1.4,5h5.4v-1.8h19.2v12.2c-0.1,5.1,0.1,10.3,0.5,15.4
			c0.3,2.2,0.7,3.2,1.1,3.2c0.3,0,0.8,0,1.2-1.3c0.6-1.8,1.1-3.7,1.4-5.6l1.7,1.9c-0.1,2.5-0.5,5-1.4,7.4c-0.4,1.3-1.6,2.3-3,2.4
			C276.8,51.8,275.3,50.2,274.4,47.1z M257.2,37.3v14.1h-4v-2.8h-4.7v3h-4V37.3H257.2L257.2,37.3z M244.5,30.8h12.6v2.9h-12.6V30.8z
			 M244.5,24.5h12.6v2.9h-12.6V24.5z M248.4,40.3v5.2h4.7v-5.2H248.4z"/>
		<path id="路径_12671" class="st4" d="M287.4,51.1c0.8-3.4,1.2-6.9,1.1-10.3l3.8,0.3c-0.5,3.7-1.7,7.2-3.6,10.4L287.4,51.1z
			 M307,18.4v33.8h-4.1V19.6c-2.3,4.1-4.3,7.4-6,9.9l3.1-1.1c0.9,3.3,1.6,6.6,2.1,10l-2.4,0.8c-0.2-0.8-0.4-1.6-0.6-2.4
			c-3.6,0.9-7,1.7-10.4,2.4l-1.1-3.4c1.3-0.9,2.5-2.1,3.4-3.4c1.2-1.6,2.3-3.2,3.3-4.9c-1.8,0.6-3.6,1.1-5.4,1.5l-1.2-3.8
			c0.6-0.4,1.1-0.9,1.5-1.5c0.5-0.7,1-1.5,1.4-2.3c0.5-1,1.1-2.1,1.6-3.3c0.6-1.3,1.3-3.1,2.1-5.4l4.3,0.8c-1.2,2.6-2.4,5-3.6,7.2
			c-0.7,1.3-1.6,2.6-2.4,3.9c1.2-0.2,2.4-0.4,3.8-0.7c0.9-1.6,1.7-3.5,2.6-5.5l3.9,0.9v-4h23.7v32.6c0.1,1.2-0.3,2.4-1.1,3.2
			c-1.2,0.8-2.6,1.2-4,1c-1.3,0-2.7,0-4.3,0v-3.6c2,0.1,2.1,0,3.1,0c0.6,0.1,1.2-0.1,1.7-0.3c0.4-0.3,0.5-0.7,0.5-1.1V18.4H307z
			 M296.4,30.2c-1.2,1.7-2.5,3.2-3.7,4.6c1.8-0.3,3.6-0.7,5.4-1.1c-0.4-1.2-0.9-2.5-1.4-3.9L296.4,30.2z M294.7,50.2
			c-0.2-3.1-0.7-6.1-1.5-9.1l3.5-0.4c0.5,3.1,0.5,6.3-0.1,9.4L294.7,50.2z M300.8,48.7c-0.9-2.9-2.1-5.5-3.1-8.1l3.2-0.8
			c0.9,2.8,1.5,5.6,1.9,8.5L300.8,48.7z M320.7,45.4h-7.9c-1.4,0.2-2.7-0.7-2.9-2.1c0-0.2,0-0.5,0-0.7v-6h-2.1v-2.9h5.9
			c-0.5-1.2-1.1-2.4-1.7-3.5l4-0.8c0.4,1.5,0.7,2.9,0.9,4.3h4.6v2.9h-7.9v5.1c0,0.5,0.3,0.8,0.8,0.8h6.1L320.7,45.4z M316,25.8
			c0.5-1.7,0.9-3.5,1.2-5.3l3.8,0.9c-0.6,1.5-1.2,3-2,4.4h2.6v2.9h-13.7v-2.9h3c-0.7-1.5-1.4-3-2.3-4.5l3.8-0.9
			c0.6,1.8,1.1,3.5,1.5,5.4H316z"/>
	</g>
	<g>
		<g>
			<g>
				<path class="st4" d="M160.7,81.2c-3.6,0-5-2-5.3-2.9c1.1-2.1,1.1-4.3,1.1-4.7c-0.1-1.1-1.1-1.6-1.7-1.6c-0.7,0-2.3,0-2.3,0
					c1.3-1.6,2.9-3.3,3.7-5.6c0.6-1.7-0.4-2.7-1.9-2.7c-1.7,0-6,0-6,0v2.3h3.8c-0.3,1.7-1.4,3.8-2.9,6c-0.4,0.6-0.4,2,1.1,2
					c0.3,0,2.6,0,2.9,0c0,4.3-3,6.8-5.4,8v1.7c2.9-0.9,4.8-2,6.1-3.4l0.1,0.1c2.1,3.3,6.4,3.1,8.1,3.1c1.9,0,18.4,0,18.4,0v-2.4
					C180.5,81.2,163.8,81.2,160.7,81.2z"/>
				<path class="st4" d="M152.3,62.5h2.6c-0.7-3.3-1.7-4.3-1.7-4.3H149C151.3,60.2,152.3,62.5,152.3,62.5z"/>
				<path class="st4" d="M161.8,76.2h5.7v3.8h3.6v-3.8h5.7v3.8h3.6c0,0,0-13.4,0-14c0-2-1-2.4-2.7-2.4c-0.4,0-1.4,0-2.1,0l3.4-2.6
					c1-0.9,0.6-2.6-1.1-2.6c-1,0-19.2,0-19.2,0V61h16.8l-3.4,2.7c0,0-5.3,0-6,0l-0.9-1.7H162l0.9,1.7c-0.6,0-1.9,0-2.1,0
					c-1.4,0-2.4,0.3-2.4,2.4c0,0.6,0,14,0,14h3.7v-3.8H161.8z M171.2,66.1h5.7v2.7h-5.7V66.1z M171.2,71.1h5.7v2.7h-5.7V71.1z
					 M161.8,66.1h5.7v2.6h-5.7V66.1z M161.8,71.1h5.7v2.7h-5.7V71.1z"/>
			</g>
			<g>
				<path class="st4" d="M233.3,77.9h-4.4v-2.1h4.4V77.9z M233.3,73.9h-4.4v-2.3h4.4V73.9z M228.8,79.8h4.4v2.1h-4.4V79.8z
					 M230,62.1h-4.1c-1.7,0-2,1.3-2,1.9c0,0.3,0,4.1,0,4.1l0,0h8c0,0,0-4,0-4.3C232,63.4,231.8,62.1,230,62.1z M226.7,66.4V64h2.6
					v2.4H226.7z M241.7,64c0-0.6,0.1-1.9-1.9-1.9h-4.1c-2,0-2,1.3-2,1.9c0,0.3,0,4.1,0,4.1l0,0h8C241.7,68.1,241.7,64.1,241.7,64z
					 M239,64v2.4h-2.6V64H239z M239.2,58.8h2.6v1.7h-2.6v1H236v-1h-6.3v1h-3.3v-1h-2.6v-1.7h2.6v-1.1h3.3v1.1h6.3v-1.1h3.3V58.8z
					 M254.2,79.9c0,0,0,0.6,0,1.1c0,1-0.6,0.9-0.6,0.9h-0.1c0,0-0.7,0-0.7-0.9c0-0.7,0-3.6,0-5.4h2.3l0,0c0,0,0-15.3,0-15.7
					c0-1.4-0.9-2.1-2.4-2.1c-0.7,0-7.6,0-7.8,0c-1.6,0-2.3,0.4-2.3,2.1c0,0.6,0,15.7,0,15.7h2.1c-0.3,4.7-2.4,6.8-2.4,6.8v1.1
					c4.6-2,5.7-6.1,6-8h1v6.3c0,0,0,1.7,2,1.7h3.3c0,0,1.4-0.1,1.4-1.7s0-2.1,0-2.1L254.2,79.9L254.2,79.9z M246.2,60h5.3v3.1h-5.3
					V60z M246.2,65.2h5.3v3.1h-5.3V65.2z M246.2,70.5h5.3v3.1h-5.3V70.5z M237,79.8h4.7v-1.9H237v-2.1h4.7v-1.7H237v-2.3h4.7v-1.7
					H237l1.1-1.4h-3.7l-1.1,1.4h-4.4c0.4-0.9,0.7-1.3,0.7-1.3h-3.7c-1.6,4.8-3.8,6.6-3.8,6.6v2.1c1.3-0.6,2.3-1.4,3.3-2.4v8.8h16.4
					v-1.7H237L237,79.8L237,79.8z"/>
			</g>
			<g>
				<path class="st4" d="M200.6,72.2c-0.4,0-10.1,0-10.5,0c-1.7,0-2.4,0.7-2.4,2.3c0,2.9,0,9.3,0,9.3h16c0,0,0-6.4,0-9.3
					C203.6,72.6,202.3,72.2,200.6,72.2z M199.8,81.3h-8.3v-6.8h8.3V81.3z"/>
				<path class="st4" d="M202.7,61.1h1.9v-2.3h-7v-1.3h-4.3v1.3h-7v2.3H199c0,1.1,0,4.4-1.7,7.3h-3.4c-1.3-2.3-1.9-5.3-1.9-5.3h-3.6
					c0.4,1.9,1.9,4.3,2.6,5.3h-5.6v2.3h20v-2.3H200C200.8,67.4,202,65,202.7,61.1z"/>
				<path class="st4" d="M214.4,67.5c1.6-2.1,2.7-5.1,3.1-7.1c0.3-1.1-0.4-2.1-2.3-2.1c-1.7,0-8.8,0-8.8,0v25.5h3.7V60.4h4
					c-0.4,4.3-2.6,7.8-2.6,7.8s3.6,3.1,3.4,7.8c0,2.6-1.6,3.4-2.7,3.4c-0.3,0-1,0-1.4,0v2.1c0.6,0,1.1,0,1.6,0c4.4,0,5.7-2.4,5.7-5
					C218,70.5,214.4,67.5,214.4,67.5z"/>
			</g>
			<g>
				<path class="st4" d="M271.2,67.5v-1c-4.4-2.7-5.4-7.1-5.4-7.1h-4C264,66.9,271.2,67.5,271.2,67.5z"/>
				<path class="st4" d="M288.6,76.2c0,0,0,1.6,0,3c0,1.3-0.4,2.6-2.9,2.6c-2.7,0-3.8,0-3.8,0s-1.9,0-1.9-1.7c0-1.4,0-8.4,0-8.4
					h10.4v-2.6h-13.1V57.7h-3.8v11.4h-13.5v2.6h9.7c-1.3,8.6-9.5,10.7-9.5,10.7v1.4c11.4-1.9,13.7-10.1,14.1-12.1h2.1
					c0,2.3,0,6.8,0,7.7c0,1.3,0.3,4.3,3.8,4.3c2.9,0,5.7,0,7.3,0c0.3,0,3.3-0.1,3.3-4c0-3.1,0-3.6,0-3.6h-2.1V76.2z"/>
				<path class="st4" d="M289.5,59.4h-4.1c0,0-1,4.4-5.4,7.1v1C280.1,67.5,287.3,66.9,289.5,59.4z"/>
			</g>
			<path class="st4" d="M137.6,68.7c2.9,2.4,6.1,3,6.1,3v-1.3c-4.7-2.4-5.7-7.1-6-8.6h4.8v-2.6h-13v-1.4h-4.1v1.4h-13v2.6h4.8
				c-0.3,1.4-1.3,6.1-6,8.6v1.3c0,0,3.3-0.6,6.1-3c1.7,4.1,4.1,7.1,6.8,9.3c-3.1,2.1-7.3,3.7-12.5,4v1.7l0,0l0,0c0,0,8,0.6,15.5-3.4
				c7.6,4.1,15.5,3.4,15.5,3.4l0,0l0,0v-1.6c-5.3-0.3-9.4-1.9-12.5-4C133.5,75.8,135.9,72.8,137.6,68.7z M127.6,75.5
				c-4.3-4.3-6.1-9.3-6.6-11.4c0.3-0.7,0.6-1.4,0.7-2.3h11.7c0.1,0.9,0.4,1.6,0.7,2.3C133.8,66.2,131.9,71.2,127.6,75.5z"/>
			<path class="st4" d="M323.6,58c-1.1,0-25.1,0-26.2,0c-2,0-2.6,0.6-2.6,2c0,0.7,0,4.4,0,4.4h14v1.4h-12.4v2.3h12.4v1.4h-14v2.3
				h3.7c-0.6,1-1.6,2.4-3.7,3.6v1c0,0,0.7,0,1.9-0.3v7.6H325c0,0,0-6.4,0-8.3c0-1.3-0.6-2-2.6-2c-1.1,0-6.4,0-20.7,0
				c0.4-0.4,1-1,1.4-1.6h23.1v-2.3h-5.7v-1.4h4.1v-2.3h-12.4v-1.4h14c0,0,0-3.7,0-4.4C326.3,58.7,325.6,58,323.6,58z M300.4,81.5
				v-1.6h21.1v1.6H300.4z M321.5,77.5h-21.1v-1.7h21.1V77.5z M317.1,68.2v1.4h-4.7v-1.4H317.1z M313.4,60.4v1.7h-5.7v-1.7H313.4z
				 M298.4,60.4h5.7v1.7h-5.7V60.4z M317.1,62.1v-1.7h5.7v1.7H317.1z"/>
		</g>
		<g>
			<path class="st4" d="M276.6,100.4c0.6-1,1-2.6,1.1-4.1h2.3c-0.4,1.6-1.3,3.1-2,4.1H276.6z"/>
			<g>
				<g>
					<path class="st4" d="M115.2,90.2h-3.1v-1.6h8.4v1.6h-3.1v8.6h-2.1V90.2z"/>
					<path class="st4" d="M127.9,95c0,2.7-2.1,3.8-4.1,3.8c-2.3,0-4-1.4-4-3.7c0-2.4,1.7-3.8,4.1-3.8
						C126.2,91.2,127.9,92.7,127.9,95z M121.8,95c0,1.4,0.7,2.4,2,2.4c1.1,0,2-1,2-2.6c0-1.1-0.6-2.4-2-2.4
						C122.4,92.6,121.8,93.9,121.8,95z"/>
					<path class="st4" d="M136.6,96.5c0,0.9,0,1.6,0,2.1h-1.7l-0.1-1.1l0,0c-0.3,0.6-1.1,1.3-2.6,1.3s-2.9-0.9-2.9-3.1v-4.3h2v4
						c0,1.3,0.4,2,1.6,2c0.9,0,1.3-0.6,1.6-1c0.1-0.1,0.1-0.4,0.1-0.6v-4.4h2V96.5z"/>
					<path class="st4" d="M138.6,93.7c0-1,0-1.7,0-2.4h1.7l0.1,1.4l0,0c0.4-1,1.3-1.6,2.3-1.6c0.1,0,0.3,0,0.4,0v1.7
						c-0.1,0-0.4,0-0.6,0c-1,0-1.6,0.6-1.9,1.4c0,0.1,0,0.4,0,0.6v3.8h-2L138.6,93.7L138.6,93.7z"/>
					<path class="st4" d="M146.4,89.3c0,0.6-0.4,1-1.1,1c-0.7,0-1.1-0.4-1.1-1s0.4-1,1.1-1C146,88.3,146.4,88.8,146.4,89.3z
						 M144.3,98.7v-7.3h2v7.3H144.3z"/>
					<path class="st4" d="M148.3,97c0.4,0.3,1.3,0.6,2,0.6c0.9,0,1.3-0.3,1.3-0.9c0-0.4-0.3-0.7-1.3-1c-1.6-0.6-2.3-1.3-2.3-2.3
						c0-1.3,1.1-2.3,3-2.3c0.9,0,1.7,0.1,2.1,0.4l-0.4,1.3c-0.3-0.1-1-0.4-1.7-0.4c-0.7,0-1.1,0.3-1.1,0.7s0.4,0.7,1.4,1
						c1.4,0.4,2.1,1.1,2.1,2.3c0,1.3-1.1,2.3-3.3,2.3c-1,0-1.9-0.1-2.4-0.6L148.3,97z"/>
					<path class="st4" d="M155,93.6c0-0.9,0-1.6,0-2.1h1.7l0.1,1.1l0,0c0.4-0.6,1.1-1.3,2.4-1.3c1,0,1.9,0.6,2.3,1.3l0,0
						c0.3-0.4,0.6-0.7,1-0.9c0.4-0.3,1-0.4,1.7-0.4c1.3,0,2.7,0.9,2.7,3.1v4.3h-2v-4c0-1.3-0.4-2-1.4-2c-0.7,0-1.1,0.4-1.4,1
						c0,0.1-0.1,0.4-0.1,0.6v4.4h-2v-4.3c0-1-0.4-1.7-1.4-1.7c-0.7,0-1.3,0.6-1.4,1c0,0.1-0.1,0.4-0.1,0.6v4.3h-2L155,93.6L155,93.6
						z"/>
				</g>
				<g>
					<path class="st4" d="M174.7,95.9l-1,2.9h-2.1l3.6-10.1h2.6l3.6,10.1h-2.1l-1-2.9H174.7z M177.8,94.5L177,92
						c-0.3-0.6-0.4-1.3-0.6-1.9l0,0c-0.1,0.6-0.3,1.3-0.6,1.9l-0.9,2.4H177.8z"/>
					<path class="st4" d="M189.8,88v8.6c0,0.7,0,1.6,0,2h-1.9l-0.1-1.1l0,0c-0.4,0.9-1.4,1.3-2.6,1.3c-2,0-3.4-1.4-3.4-3.7
						c0-2.4,1.7-3.8,3.6-3.8c1.1,0,1.9,0.4,2.3,1l0,0V88C187.6,88,189.8,88,189.8,88z M187.8,94.5c0-0.1,0-0.3,0-0.4
						c-0.1-0.7-0.9-1.3-1.7-1.3c-1.3,0-2,1-2,2.4c0,1.3,0.7,2.3,2,2.3c0.9,0,1.6-0.6,1.7-1.3c0-0.1,0-0.3,0-0.6V94.5z"/>
					<path class="st4" d="M191.9,93.6c0-0.9,0-1.6,0-2.1h1.7l0.1,1.1l0,0c0.4-0.6,1.1-1.3,2.4-1.3c1,0,1.9,0.6,2.3,1.3l0,0
						c0.3-0.4,0.6-0.7,1-0.9c0.4-0.3,1-0.4,1.7-0.4c1.3,0,2.7,0.9,2.7,3.1v4.3h-2v-4c0-1.3-0.4-2-1.4-2c-0.7,0-1.1,0.4-1.4,1
						c0,0.1-0.1,0.4-0.1,0.6v4.4h-2v-4.3c0-1-0.4-1.7-1.4-1.7c-0.7,0-1.3,0.6-1.4,1c0,0.1-0.1,0.4-0.1,0.6v4.3h-2L191.9,93.6
						L191.9,93.6z"/>
					<path class="st4" d="M207.9,89.3c0,0.6-0.4,1-1.1,1c-0.7,0-1.1-0.4-1.1-1s0.4-1,1.1-1C207.5,88.3,207.9,88.8,207.9,89.3z
						 M205.7,98.7v-7.3h2v7.3H205.7z"/>
					<path class="st4" d="M209.7,93.6c0-0.9,0-1.6,0-2.1h1.7l0.1,1.1l0,0c0.4-0.6,1.3-1.3,2.6-1.3c1.4,0,2.9,0.9,2.9,3.1v4.3h-2
						v-4.1c0-1-0.4-1.9-1.6-1.9c-0.9,0-1.4,0.6-1.6,1.1c0,0.1-0.1,0.4-0.1,0.6v4.3h-2C209.7,98.7,209.7,93.6,209.7,93.6z"/>
					<path class="st4" d="M221.1,89.3c0,0.6-0.4,1-1.1,1c-0.7,0-1.1-0.4-1.1-1s0.4-1,1.1-1C220.7,88.3,221.1,88.8,221.1,89.3z
						 M219,98.7v-7.3h2v7.3H219z"/>
					<path class="st4" d="M223,97c0.4,0.3,1.3,0.6,2,0.6c0.9,0,1.3-0.3,1.3-0.9c0-0.4-0.3-0.7-1.3-1c-1.6-0.4-2.3-1.3-2.3-2.1
						c0-1.3,1.1-2.3,3-2.3c0.9,0,1.7,0.1,2.1,0.4l-0.4,1.3c-0.3-0.1-1-0.4-1.7-0.4c-0.7,0-1.1,0.3-1.1,0.7c0,0.4,0.4,0.7,1.4,1
						c1.4,0.4,2.1,1.1,2.1,2.3c0,1.3-1.1,2.3-3.3,2.3c-1,0-1.9-0.1-2.4-0.6L223,97z"/>
					<path class="st4" d="M232.1,89.5v1.9h2v1.4h-2V96c0,0.9,0.3,1.3,1,1.3c0.4,0,0.6,0,0.9-0.1v1.4c-0.3,0.1-0.9,0.1-1.4,0.1
						c-0.7,0-1.4-0.3-1.7-0.6c-0.4-0.4-0.7-1.1-0.7-2v-3.4H229v-1.4h1.1v-1.4L232.1,89.5z"/>
					<path class="st4" d="M235.4,93.7c0-1,0-1.7,0-2.4h1.7l0.1,1.4l0,0c0.4-1,1.3-1.6,2.3-1.6c0.1,0,0.3,0,0.4,0v1.7
						c-0.1,0-0.4,0-0.6,0c-1,0-1.6,0.6-1.9,1.4c0,0.1,0,0.4,0,0.6v3.8h-2v-5C235.5,93.7,235.4,93.7,235.4,93.7z"/>
					<path class="st4" d="M247.2,97c0,0.7,0,1.3,0.1,1.7h-1.9l-0.1-0.9l0,0c-0.4,0.6-1.3,1-2.4,1c-1.6,0-2.6-1-2.6-2.1
						c0-1.9,1.9-2.7,4.7-2.7v-0.1c0-0.4-0.3-1.3-1.6-1.3c-0.9,0-1.6,0.3-2.1,0.6l-0.4-1.1c0.6-0.3,1.6-0.7,2.9-0.7
						c2.6,0,3.3,1.4,3.3,3.1V97C247.1,97,247.2,97,247.2,97z M245.2,95.2c-1.4,0-2.9,0.3-2.9,1.4c0,0.7,0.6,1,1.1,1
						c0.9,0,1.4-0.4,1.6-1c0-0.1,0-0.3,0-0.4L245.2,95.2L245.2,95.2z"/>
					<path class="st4" d="M251.4,89.5v1.9h2v1.4h-2V96c0,0.9,0.3,1.3,1,1.3c0.4,0,0.6,0,0.9-0.1v1.4c-0.3,0.1-0.9,0.1-1.4,0.1
						c-0.7,0-1.4-0.3-1.7-0.6c-0.4-0.4-0.7-1.1-0.7-2v-3.4h-1.1v-1.4h1.1v-1.4L251.4,89.5z"/>
					<path class="st4" d="M256.9,89.3c0,0.6-0.4,1-1.1,1c-0.7,0-1.1-0.4-1.1-1s0.4-1,1.1-1C256.5,88.3,256.9,88.8,256.9,89.3z
						 M254.6,98.7v-7.3h2v7.3H254.6z"/>
					<path class="st4" d="M266.5,95c0,2.7-2.1,3.8-4.1,3.8c-2.3,0-4-1.4-4-3.7c0-2.4,1.7-3.8,4.1-3.8
						C264.7,91.2,266.5,92.7,266.5,95z M260.3,95c0,1.4,0.7,2.4,2,2.4c1.1,0,2-1,2-2.6c0-1.1-0.6-2.4-2-2.4
						C260.9,92.6,260.3,93.9,260.3,95z"/>
					<path class="st4" d="M267.9,93.6c0-0.9,0-1.6,0-2.1h1.7l0.1,1.1l0,0c0.4-0.6,1.3-1.3,2.6-1.3c1.4,0,2.9,0.9,2.9,3.1v4.3h-2
						v-4.1c0-1-0.4-1.9-1.6-1.9c-0.9,0-1.4,0.6-1.6,1.1c0,0.1-0.1,0.4-0.1,0.6v4.3h-2V93.6z"/>
				</g>
				<g>
					<path class="st4" d="M293.8,94.6c0-1.3-0.1-2.9-0.1-4.3l0,0c-0.4,1.3-0.9,2.6-1.3,3.8l-1.6,4.4h-1.7l-1.4-4.3
						c-0.4-1.3-0.9-2.7-1.1-4l0,0c0,1.3-0.1,3-0.1,4.3l-0.3,4.1h-1.9l0.7-10.1h2.7l1.4,4.1c0.4,1.1,0.7,2.4,1,3.6l0,0
						c0.3-1.1,0.7-2.3,1.1-3.6l1.6-4h2.7l0.7,10.1h-2L293.8,94.6z"/>
					<path class="st4" d="M307.8,93.6c0,3.4-2.3,5.3-5.3,5.3c-3.1,0-5.1-2.1-5.1-5.1c0-3.1,2.1-5.3,5.3-5.3
						C305.9,88.5,307.8,90.6,307.8,93.6z M299.5,93.7c0,2.1,1.1,3.7,3.1,3.7s3.1-1.7,3.1-3.8c0-1.9-1-3.7-3.1-3.7
						S299.5,91.6,299.5,93.7z"/>
					<path class="st4" d="M311.1,90.2h-3.1v-1.6h8.4v1.6h-3.1v8.6h-2v-8.6H311.1z"/>
					<path class="st4" d="M324.9,98.4c-0.4,0.1-1.6,0.4-2.9,0.4c-3.6,0-5.7-2-5.7-5.1c0-3.3,2.6-5.3,6-5.3c1.3,0,2.3,0.3,2.7,0.4
						l-0.4,1.4c-0.6-0.1-1.3-0.4-2.1-0.4c-2.3,0-3.8,1.3-3.8,3.7c0,2.3,1.4,3.7,3.8,3.7c0.9,0,1.7-0.1,2.3-0.4L324.9,98.4z"/>
				</g>
			</g>
		</g>
	</g>
</g>
</svg>
